<?xml version="1.0" encoding="UTF-8" standalone="no"?>
<!DOCTYPE svg PUBLIC "-//W3C//DTD SVG 1.1//EN" "http://www.w3.org/Graphics/SVG/1.1/DTD/svg11.dtd">
<svg width="100%" height="100%" viewBox="0 0 620 250" version="1.1" xmlns="http://www.w3.org/2000/svg" xmlns:xlink="http://www.w3.org/1999/xlink" xml:space="preserve" xmlns:serif="http://www.serif.com/" style="fill-rule:evenodd;clip-rule:evenodd;stroke-linejoin:round;stroke-miterlimit:2;">
    <g transform="matrix(1,0,0,1,0.000005,-0.000036)">
        <g id="Lapis-1" serif:id="Lapis 1" transform="matrix(11.185306,0,0,11.107977,-443.04469,-1245.203353)">
            <g id="g927">
                <path id="path426" d="M55.572,112.181L55.572,128.264L61.104,128.214L61.104,120.231L65.919,128.261L71.657,128.245L71.646,112.205L66.092,112.185L66.103,120.473L61.211,112.15L55.572,112.181Z" style="fill:rgb(19,105,178);fill-rule:nonzero;"/>
                <path id="path428" d="M73.141,128.23L75.913,112.186L81.899,112.186L84.148,120.358L86.461,112.202L92.432,112.202L94.95,128.293L89.327,128.277L88.361,119.123L85.764,128.246L82.296,128.246L79.825,118.949L78.827,128.246L73.141,128.23Z" style="fill:rgb(19,105,178);fill-rule:nonzero;"/>
                <path id="path430" d="M89.438,115.426L85.806,128.234L82.295,128.246L89.438,115.426Z" style="fill:rgb(116,192,68);fill-rule:nonzero;"/>
                <path id="path432" d="M47.904,118.494C47.566,119.365 46.483,119.291 46.483,119.291L45.496,119.291L45.496,116.714C45.496,116.714 46.282,116.709 46.737,116.709C47.297,116.714 47.677,117.079 47.819,117.348C48.02,117.691 48.03,118.235 47.904,118.494M53.533,117.349C53.419,116.152 53.232,115.053 52.282,113.96C51.348,112.82 49.711,112.461 48.481,112.25C47.008,111.996 39.61,112.141 39.61,112.141L39.61,128.264L45.409,128.264L45.424,123.473L48.49,123.472C48.49,123.472 51.246,123.314 52.418,121.773C53.051,120.886 53.629,119.899 53.533,117.349" style="fill:rgb(19,105,178);fill-rule:nonzero;"/>
                <g id="text847" transform="matrix(1.956176,0,0,2.25189,-41.682464,-173.78457)">
                    <path id="path849" d="M41.557,136.922L41.557,135.361L42.145,135.361C42.249,135.361 42.328,135.366 42.383,135.376C42.459,135.389 42.524,135.413 42.575,135.45C42.627,135.485 42.669,135.535 42.7,135.6C42.732,135.664 42.748,135.735 42.748,135.813C42.748,135.945 42.706,136.058 42.621,136.15C42.537,136.242 42.384,136.287 42.163,136.287L41.763,136.287L41.763,136.922L41.557,136.922ZM41.763,136.103L42.167,136.103C42.3,136.103 42.395,136.078 42.451,136.029C42.507,135.979 42.535,135.909 42.535,135.819C42.535,135.754 42.518,135.698 42.485,135.652C42.452,135.605 42.409,135.574 42.355,135.559C42.32,135.55 42.256,135.546 42.162,135.546L41.763,135.546L41.763,136.103Z" style="fill-rule:nonzero;"/>
                    <path id="path851" d="M43.76,136.558L43.958,136.582C43.927,136.698 43.869,136.788 43.785,136.852C43.7,136.915 43.592,136.947 43.461,136.947C43.296,136.947 43.164,136.897 43.067,136.795C42.971,136.693 42.922,136.55 42.922,136.366C42.922,136.176 42.971,136.028 43.069,135.923C43.167,135.818 43.294,135.766 43.45,135.766C43.602,135.766 43.725,135.817 43.821,135.92C43.917,136.023 43.965,136.168 43.965,136.354C43.965,136.366 43.964,136.383 43.963,136.406L43.12,136.406C43.127,136.53 43.163,136.625 43.226,136.691C43.289,136.757 43.368,136.79 43.462,136.79C43.532,136.79 43.592,136.771 43.642,136.734C43.692,136.698 43.731,136.639 43.76,136.558L43.76,136.558ZM43.131,136.248L43.762,136.248C43.754,136.153 43.73,136.082 43.69,136.034C43.629,135.96 43.55,135.923 43.453,135.923C43.365,135.923 43.29,135.953 43.23,136.012C43.17,136.071 43.137,136.149 43.131,136.248L43.131,136.248Z" style="fill-rule:nonzero;"/>
                    <path id="path853" d="M44.197,136.922L44.197,135.791L44.369,135.791L44.369,135.963C44.413,135.883 44.454,135.83 44.49,135.804C44.528,135.779 44.569,135.766 44.614,135.766C44.679,135.766 44.744,135.786 44.811,135.828L44.745,136.005C44.698,135.978 44.651,135.964 44.604,135.964C44.562,135.964 44.525,135.977 44.492,136.002C44.458,136.027 44.434,136.062 44.42,136.106C44.399,136.175 44.388,136.249 44.388,136.33L44.388,136.922L44.197,136.922Z" style="fill-rule:nonzero;"/>
                    <path id="path855" d="M44.925,136.922L44.925,135.791L45.096,135.791L45.096,135.95C45.132,135.895 45.179,135.85 45.238,135.817C45.297,135.783 45.364,135.766 45.439,135.766C45.523,135.766 45.591,135.783 45.644,135.818C45.698,135.853 45.736,135.901 45.758,135.964C45.848,135.832 45.964,135.766 46.107,135.766C46.22,135.766 46.306,135.797 46.366,135.86C46.426,135.921 46.457,136.017 46.457,136.146L46.457,136.922L46.266,136.922L46.266,136.21C46.266,136.133 46.26,136.078 46.247,136.045C46.235,136.011 46.213,135.983 46.18,135.963C46.147,135.942 46.109,135.932 46.065,135.932C45.985,135.932 45.919,135.958 45.867,136.012C45.814,136.064 45.788,136.149 45.788,136.265L45.788,136.922L45.597,136.922L45.597,136.187C45.597,136.102 45.581,136.038 45.55,135.996C45.518,135.953 45.467,135.932 45.396,135.932C45.342,135.932 45.292,135.946 45.246,135.974C45.201,136.003 45.168,136.044 45.147,136.099C45.127,136.154 45.116,136.232 45.116,136.335L45.116,136.922L44.925,136.922Z" style="fill-rule:nonzero;"/>
                    <path id="path857" d="M46.67,136.357C46.67,136.147 46.728,135.992 46.844,135.891C46.941,135.808 47.06,135.766 47.2,135.766C47.355,135.766 47.482,135.817 47.581,135.919C47.679,136.021 47.729,136.161 47.729,136.341C47.729,136.486 47.707,136.601 47.663,136.684C47.619,136.768 47.556,136.832 47.472,136.878C47.389,136.924 47.298,136.947 47.2,136.947C47.041,136.947 46.913,136.897 46.815,136.795C46.718,136.694 46.67,136.548 46.67,136.357L46.67,136.357ZM46.866,136.357C46.866,136.501 46.898,136.61 46.961,136.682C47.024,136.754 47.104,136.79 47.2,136.79C47.295,136.79 47.374,136.754 47.437,136.681C47.5,136.609 47.532,136.499 47.532,136.35C47.532,136.21 47.5,136.105 47.436,136.033C47.373,135.961 47.294,135.924 47.2,135.924C47.104,135.924 47.024,135.96 46.961,136.032C46.898,136.104 46.866,136.212 46.866,136.357L46.866,136.357Z" style="fill-rule:nonzero;"/>
                    <path id="path859" d="M48.687,136.922L48.687,136.779C48.615,136.891 48.51,136.947 48.371,136.947C48.281,136.947 48.198,136.923 48.122,136.873C48.046,136.823 47.988,136.754 47.946,136.665C47.905,136.576 47.884,136.473 47.884,136.358C47.884,136.245 47.903,136.143 47.941,136.051C47.978,135.959 48.035,135.888 48.11,135.839C48.185,135.79 48.269,135.766 48.362,135.766C48.43,135.766 48.491,135.78 48.544,135.809C48.597,135.838 48.641,135.875 48.674,135.921L48.674,135.361L48.865,135.361L48.865,136.922L48.687,136.922ZM48.081,136.358C48.081,136.502 48.112,136.611 48.173,136.682C48.234,136.754 48.306,136.79 48.389,136.79C48.473,136.79 48.543,136.756 48.602,136.688C48.661,136.619 48.69,136.514 48.69,136.374C48.69,136.219 48.66,136.105 48.601,136.033C48.541,135.961 48.468,135.924 48.38,135.924C48.295,135.924 48.224,135.959 48.166,136.029C48.11,136.098 48.081,136.208 48.081,136.358L48.081,136.358Z" style="fill-rule:nonzero;"/>
                    <path id="path861" d="M49.904,136.782C49.833,136.843 49.764,136.885 49.698,136.91C49.633,136.935 49.563,136.947 49.487,136.947C49.363,136.947 49.268,136.917 49.201,136.857C49.134,136.796 49.101,136.718 49.101,136.624C49.101,136.568 49.113,136.518 49.138,136.473C49.164,136.427 49.197,136.39 49.237,136.362C49.278,136.334 49.325,136.313 49.376,136.299C49.413,136.289 49.47,136.28 49.546,136.27C49.701,136.252 49.815,136.23 49.888,136.204C49.888,136.178 49.889,136.162 49.889,136.154C49.889,136.076 49.871,136.021 49.834,135.989C49.785,135.946 49.713,135.925 49.616,135.925C49.526,135.925 49.459,135.941 49.416,135.972C49.374,136.004 49.342,136.059 49.321,136.14L49.134,136.114C49.151,136.034 49.179,135.969 49.218,135.92C49.257,135.871 49.314,135.833 49.387,135.806C49.461,135.779 49.547,135.766 49.644,135.766C49.74,135.766 49.819,135.777 49.879,135.8C49.94,135.823 49.984,135.852 50.012,135.886C50.041,135.92 50.06,135.964 50.072,136.016C50.078,136.049 50.081,136.108 50.081,136.193L50.081,136.448C50.081,136.626 50.085,136.739 50.093,136.787C50.102,136.834 50.118,136.879 50.142,136.922L49.942,136.922C49.922,136.882 49.909,136.836 49.904,136.783L49.904,136.782ZM49.888,136.354C49.818,136.383 49.714,136.407 49.575,136.427C49.496,136.438 49.44,136.451 49.408,136.465C49.375,136.479 49.35,136.5 49.332,136.528C49.314,136.555 49.305,136.585 49.305,136.618C49.305,136.67 49.325,136.712 49.363,136.746C49.402,136.78 49.459,136.797 49.533,136.797C49.607,136.797 49.673,136.781 49.73,136.749C49.788,136.717 49.83,136.672 49.857,136.616C49.877,136.573 49.888,136.509 49.888,136.425L49.888,136.354Z" style="fill-rule:nonzero;"/>
                    <rect id="path863" x="50.374" y="135.361" width="0.192" height="1.561" style="fill-rule:nonzero;"/>
                    <path id="path865" d="M51.6,136.782C51.53,136.843 51.461,136.885 51.395,136.91C51.33,136.935 51.259,136.947 51.184,136.947C51.06,136.947 50.965,136.917 50.898,136.857C50.831,136.796 50.798,136.718 50.798,136.624C50.798,136.568 50.81,136.518 50.835,136.473C50.861,136.427 50.894,136.39 50.934,136.362C50.975,136.334 51.021,136.313 51.072,136.299C51.11,136.289 51.167,136.28 51.243,136.27C51.398,136.252 51.511,136.23 51.585,136.204C51.585,136.178 51.586,136.162 51.586,136.154C51.586,136.076 51.568,136.021 51.531,135.989C51.482,135.946 51.41,135.925 51.313,135.925C51.223,135.925 51.156,135.941 51.113,135.972C51.07,136.004 51.039,136.059 51.018,136.14L50.831,136.114C50.848,136.034 50.876,135.969 50.915,135.92C50.954,135.871 51.01,135.833 51.084,135.806C51.158,135.779 51.244,135.766 51.341,135.766C51.437,135.766 51.516,135.777 51.576,135.8C51.636,135.823 51.681,135.852 51.709,135.886C51.737,135.92 51.757,135.964 51.769,136.016C51.775,136.049 51.778,136.108 51.778,136.193L51.778,136.448C51.778,136.626 51.782,136.739 51.79,136.787C51.799,136.834 51.815,136.879 51.839,136.922L51.639,136.922C51.619,136.882 51.606,136.836 51.601,136.783L51.6,136.782ZM51.585,136.354C51.515,136.383 51.411,136.407 51.272,136.427C51.193,136.438 51.137,136.451 51.104,136.465C51.072,136.479 51.047,136.5 51.029,136.528C51.011,136.555 51.002,136.585 51.002,136.618C51.002,136.67 51.021,136.712 51.06,136.746C51.099,136.78 51.156,136.797 51.23,136.797C51.304,136.797 51.369,136.781 51.427,136.749C51.484,136.717 51.527,136.672 51.554,136.616C51.574,136.573 51.585,136.509 51.585,136.425L51.585,136.354Z" style="fill-rule:nonzero;"/>
                    <path id="path867" d="M52.075,136.922L52.075,135.791L52.248,135.791L52.248,135.952C52.331,135.828 52.451,135.766 52.608,135.766C52.676,135.766 52.738,135.778 52.795,135.803C52.852,135.827 52.895,135.859 52.924,135.899C52.952,135.939 52.972,135.986 52.983,136.04C52.99,136.076 52.994,136.138 52.994,136.227L52.994,136.922L52.802,136.922L52.802,136.234C52.802,136.156 52.795,136.098 52.78,136.06C52.765,136.021 52.738,135.99 52.7,135.967C52.663,135.944 52.618,135.932 52.567,135.932C52.485,135.932 52.415,135.958 52.355,136.01C52.296,136.061 52.267,136.16 52.267,136.305L52.267,136.922L52.075,136.922Z" style="fill-rule:nonzero;"/>
                    <path id="path869" d="M53.916,136.922L53.916,135.361L54.128,135.361L54.947,136.587L54.947,135.361L55.145,135.361L55.145,136.922L54.934,136.922L54.114,135.696L54.114,136.922L53.916,136.922Z" style="fill-rule:nonzero;"/>
                    <path id="path871" d="M56.206,136.782C56.135,136.843 56.066,136.885 56,136.91C55.935,136.935 55.865,136.947 55.789,136.947C55.665,136.947 55.57,136.917 55.503,136.857C55.436,136.796 55.403,136.718 55.403,136.624C55.403,136.568 55.415,136.518 55.44,136.473C55.466,136.427 55.499,136.39 55.539,136.362C55.58,136.334 55.627,136.313 55.678,136.299C55.715,136.289 55.772,136.28 55.848,136.27C56.003,136.252 56.117,136.23 56.19,136.204C56.19,136.178 56.191,136.162 56.191,136.154C56.191,136.076 56.173,136.021 56.137,135.989C56.088,135.946 56.015,135.925 55.918,135.925C55.828,135.925 55.761,135.941 55.718,135.972C55.676,136.004 55.644,136.059 55.623,136.14L55.436,136.114C55.453,136.034 55.481,135.969 55.52,135.92C55.559,135.871 55.616,135.833 55.689,135.806C55.763,135.779 55.849,135.766 55.946,135.766C56.042,135.766 56.121,135.777 56.181,135.8C56.242,135.823 56.286,135.852 56.314,135.886C56.343,135.92 56.363,135.964 56.374,136.016C56.38,136.049 56.384,136.108 56.384,136.193L56.384,136.448C56.384,136.626 56.387,136.739 56.395,136.787C56.404,136.834 56.42,136.879 56.444,136.922L56.244,136.922C56.224,136.882 56.211,136.836 56.206,136.783L56.206,136.782ZM56.19,136.354C56.12,136.383 56.016,136.407 55.877,136.427C55.798,136.438 55.742,136.451 55.71,136.465C55.677,136.479 55.652,136.5 55.634,136.528C55.616,136.555 55.607,136.585 55.607,136.618C55.607,136.67 55.627,136.712 55.665,136.746C55.704,136.78 55.761,136.797 55.835,136.797C55.909,136.797 55.975,136.781 56.032,136.749C56.09,136.717 56.132,136.672 56.159,136.616C56.179,136.573 56.19,136.509 56.19,136.425L56.19,136.354Z" style="fill-rule:nonzero;"/>
                    <path id="path873" d="M56.604,136.584L56.793,136.555C56.804,136.631 56.833,136.689 56.882,136.729C56.931,136.77 56.999,136.79 57.086,136.79C57.174,136.79 57.239,136.772 57.282,136.737C57.325,136.7 57.346,136.658 57.346,136.61C57.346,136.567 57.327,136.533 57.289,136.508C57.263,136.491 57.198,136.469 57.093,136.443C56.953,136.407 56.855,136.377 56.801,136.351C56.747,136.325 56.706,136.289 56.677,136.244C56.65,136.198 56.636,136.147 56.636,136.092C56.636,136.041 56.647,135.995 56.67,135.952C56.693,135.909 56.725,135.873 56.765,135.845C56.794,135.823 56.835,135.804 56.886,135.789C56.938,135.774 56.993,135.766 57.052,135.766C57.141,135.766 57.218,135.779 57.285,135.804C57.353,135.83 57.402,135.865 57.434,135.909C57.466,135.952 57.488,136.01 57.5,136.083L57.313,136.109C57.304,136.05 57.279,136.005 57.238,135.972C57.198,135.94 57.14,135.923 57.066,135.923C56.978,135.923 56.915,135.938 56.877,135.967C56.84,135.996 56.821,136.03 56.821,136.069C56.821,136.094 56.829,136.116 56.844,136.136C56.86,136.157 56.884,136.174 56.918,136.187C56.937,136.195 56.993,136.211 57.087,136.236C57.223,136.273 57.317,136.302 57.37,136.326C57.424,136.349 57.466,136.382 57.497,136.426C57.527,136.47 57.543,136.525 57.543,136.59C57.543,136.654 57.524,136.714 57.486,136.771C57.449,136.827 57.396,136.871 57.326,136.902C57.255,136.932 57.176,136.948 57.087,136.948C56.94,136.948 56.828,136.917 56.751,136.856C56.674,136.795 56.625,136.705 56.604,136.585L56.604,136.584Z" style="fill-rule:nonzero;"/>
                    <path id="path875" d="M57.772,135.582L57.772,135.361L57.963,135.361L57.963,135.582L57.772,135.582ZM57.772,136.922L57.772,135.791L57.963,135.791L57.963,136.922L57.772,136.922Z" style="fill-rule:nonzero;"/>
                    <path id="path877" d="M58.184,136.357C58.184,136.147 58.242,135.992 58.358,135.891C58.455,135.808 58.574,135.766 58.714,135.766C58.869,135.766 58.996,135.817 59.095,135.919C59.193,136.021 59.243,136.161 59.243,136.341C59.243,136.486 59.221,136.601 59.177,136.684C59.133,136.768 59.07,136.832 58.986,136.878C58.903,136.924 58.812,136.947 58.714,136.947C58.555,136.947 58.427,136.897 58.329,136.795C58.232,136.694 58.184,136.548 58.184,136.357L58.184,136.357ZM58.381,136.357C58.381,136.501 58.412,136.61 58.475,136.682C58.538,136.754 58.618,136.79 58.714,136.79C58.809,136.79 58.888,136.754 58.951,136.681C59.014,136.609 59.046,136.499 59.046,136.35C59.046,136.21 59.014,136.105 58.95,136.033C58.887,135.961 58.808,135.924 58.714,135.924C58.618,135.924 58.538,135.96 58.475,136.032C58.412,136.104 58.381,136.212 58.381,136.357L58.381,136.357Z" style="fill-rule:nonzero;"/>
                    <path id="path879" d="M59.467,136.922L59.467,135.791L59.64,135.791L59.64,135.952C59.723,135.828 59.843,135.766 60,135.766C60.068,135.766 60.13,135.778 60.187,135.803C60.245,135.827 60.287,135.859 60.316,135.899C60.344,135.939 60.364,135.986 60.375,136.04C60.383,136.076 60.386,136.138 60.386,136.227L60.386,136.922L60.194,136.922L60.194,136.234C60.194,136.156 60.187,136.098 60.172,136.06C60.157,136.021 60.131,135.99 60.092,135.967C60.055,135.944 60.01,135.932 59.959,135.932C59.878,135.932 59.807,135.958 59.747,136.01C59.688,136.061 59.659,136.16 59.659,136.305L59.659,136.922L59.467,136.922Z" style="fill-rule:nonzero;"/>
                    <path id="path881" d="M61.418,136.782C61.347,136.843 61.278,136.885 61.212,136.91C61.147,136.935 61.077,136.947 61.001,136.947C60.877,136.947 60.782,136.917 60.715,136.857C60.648,136.796 60.615,136.718 60.615,136.624C60.615,136.568 60.627,136.518 60.652,136.473C60.678,136.427 60.711,136.39 60.751,136.362C60.792,136.334 60.839,136.313 60.89,136.299C60.927,136.289 60.984,136.28 61.06,136.27C61.215,136.252 61.329,136.23 61.402,136.204C61.402,136.178 61.403,136.162 61.403,136.154C61.403,136.076 61.385,136.021 61.348,135.989C61.3,135.946 61.227,135.925 61.13,135.925C61.04,135.925 60.973,135.941 60.93,135.972C60.888,136.004 60.856,136.059 60.835,136.14L60.648,136.114C60.665,136.034 60.693,135.969 60.732,135.92C60.771,135.871 60.828,135.833 60.901,135.806C60.975,135.779 61.061,135.766 61.158,135.766C61.254,135.766 61.333,135.777 61.393,135.8C61.454,135.823 61.498,135.852 61.526,135.886C61.555,135.92 61.575,135.964 61.586,136.016C61.592,136.049 61.595,136.108 61.595,136.193L61.595,136.448C61.595,136.626 61.599,136.739 61.607,136.787C61.616,136.834 61.632,136.879 61.656,136.922L61.456,136.922C61.436,136.882 61.423,136.836 61.418,136.783L61.418,136.782ZM61.402,136.354C61.332,136.383 61.228,136.407 61.089,136.427C61.01,136.438 60.954,136.451 60.922,136.465C60.889,136.479 60.864,136.5 60.846,136.528C60.828,136.555 60.819,136.585 60.819,136.618C60.819,136.67 60.839,136.712 60.877,136.746C60.916,136.78 60.973,136.797 61.047,136.797C61.121,136.797 61.187,136.781 61.244,136.749C61.302,136.717 61.344,136.672 61.371,136.616C61.391,136.573 61.402,136.509 61.402,136.425L61.402,136.354Z" style="fill-rule:nonzero;"/>
                    <rect id="path883" x="61.888" y="135.361" width="0.192" height="1.561" style="fill-rule:nonzero;"/>
                    <path id="path885" d="M63.001,136.922L63.001,135.361L63.311,135.361L63.681,136.466C63.715,136.569 63.74,136.646 63.755,136.697C63.773,136.64 63.801,136.557 63.838,136.447L64.212,135.361L64.49,135.361L64.49,136.922L64.291,136.922L64.291,135.616L63.837,136.922L63.651,136.922L63.2,135.593L63.2,136.922L63.001,136.922Z" style="fill-rule:nonzero;"/>
                    <path id="path887" d="M65.536,136.782C65.465,136.843 65.397,136.885 65.331,136.91C65.266,136.935 65.195,136.947 65.12,136.947C64.996,136.947 64.9,136.917 64.834,136.857C64.767,136.796 64.734,136.718 64.734,136.624C64.734,136.568 64.746,136.518 64.771,136.473C64.796,136.427 64.829,136.39 64.87,136.362C64.911,136.334 64.957,136.313 65.008,136.299C65.046,136.289 65.103,136.28 65.179,136.27C65.333,136.252 65.447,136.23 65.52,136.204C65.521,136.178 65.521,136.162 65.521,136.154C65.521,136.076 65.503,136.021 65.467,135.989C65.418,135.946 65.345,135.925 65.249,135.925C65.159,135.925 65.092,135.941 65.049,135.972C65.006,136.004 64.975,136.059 64.954,136.14L64.767,136.114C64.784,136.034 64.812,135.969 64.851,135.92C64.89,135.871 64.946,135.833 65.02,135.806C65.094,135.779 65.179,135.766 65.277,135.766C65.373,135.766 65.452,135.777 65.512,135.8C65.572,135.823 65.617,135.852 65.645,135.886C65.673,135.92 65.693,135.964 65.705,136.016C65.711,136.049 65.714,136.108 65.714,136.193L65.714,136.448C65.714,136.626 65.718,136.739 65.726,136.787C65.734,136.834 65.751,136.879 65.775,136.922L65.575,136.922C65.555,136.882 65.542,136.836 65.536,136.783L65.536,136.782ZM65.52,136.354C65.451,136.383 65.346,136.407 65.207,136.427C65.129,136.438 65.073,136.451 65.04,136.465C65.008,136.479 64.982,136.5 64.965,136.528C64.947,136.555 64.938,136.585 64.938,136.618C64.938,136.67 64.957,136.712 64.996,136.746C65.035,136.78 65.091,136.797 65.166,136.797C65.24,136.797 65.305,136.781 65.363,136.749C65.42,136.717 65.463,136.672 65.489,136.616C65.51,136.573 65.52,136.509 65.52,136.425L65.52,136.354Z" style="fill-rule:nonzero;"/>
                    <path id="path889" d="M66.745,136.922L66.745,136.779C66.673,136.891 66.568,136.947 66.428,136.947C66.338,136.947 66.255,136.923 66.179,136.873C66.104,136.823 66.046,136.754 66.004,136.665C65.963,136.576 65.942,136.473 65.942,136.358C65.942,136.245 65.961,136.143 65.998,136.051C66.036,135.959 66.092,135.888 66.168,135.839C66.243,135.79 66.327,135.766 66.42,135.766C66.488,135.766 66.549,135.78 66.602,135.809C66.655,135.838 66.698,135.875 66.732,135.921L66.732,135.361L66.922,135.361L66.922,136.922L66.745,136.922ZM66.139,136.358C66.139,136.502 66.169,136.611 66.23,136.682C66.291,136.754 66.363,136.79 66.447,136.79C66.53,136.79 66.601,136.756 66.659,136.688C66.718,136.619 66.748,136.514 66.748,136.374C66.748,136.219 66.718,136.105 66.658,136.033C66.599,135.961 66.525,135.924 66.438,135.924C66.353,135.924 66.282,135.959 66.224,136.029C66.167,136.098 66.139,136.208 66.139,136.358L66.139,136.358Z" style="fill-rule:nonzero;"/>
                    <path id="path891" d="M67.961,136.782C67.89,136.843 67.822,136.885 67.756,136.91C67.691,136.935 67.62,136.947 67.545,136.947C67.421,136.947 67.325,136.917 67.259,136.857C67.192,136.796 67.159,136.718 67.159,136.624C67.159,136.568 67.171,136.518 67.196,136.473C67.221,136.427 67.254,136.39 67.295,136.362C67.336,136.334 67.382,136.313 67.433,136.299C67.471,136.289 67.528,136.28 67.604,136.27C67.758,136.252 67.872,136.23 67.945,136.204C67.946,136.178 67.946,136.162 67.946,136.154C67.946,136.076 67.928,136.021 67.892,135.989C67.843,135.946 67.77,135.925 67.674,135.925C67.584,135.925 67.517,135.941 67.474,135.972C67.431,136.004 67.4,136.059 67.379,136.14L67.192,136.114C67.209,136.034 67.237,135.969 67.276,135.92C67.315,135.871 67.371,135.833 67.445,135.806C67.519,135.779 67.604,135.766 67.702,135.766C67.798,135.766 67.877,135.777 67.937,135.8C67.997,135.823 68.042,135.852 68.07,135.886C68.098,135.92 68.118,135.964 68.13,136.016C68.136,136.049 68.139,136.108 68.139,136.193L68.139,136.448C68.139,136.626 68.143,136.739 68.151,136.787C68.159,136.834 68.176,136.879 68.2,136.922L68,136.922C67.98,136.882 67.967,136.836 67.961,136.783L67.961,136.782ZM67.945,136.354C67.876,136.383 67.772,136.407 67.632,136.427C67.554,136.438 67.498,136.451 67.465,136.465C67.433,136.479 67.407,136.5 67.39,136.528C67.372,136.555 67.363,136.585 67.363,136.618C67.363,136.67 67.382,136.712 67.421,136.746C67.46,136.78 67.516,136.797 67.591,136.797C67.665,136.797 67.73,136.781 67.788,136.749C67.845,136.717 67.888,136.672 67.915,136.616C67.935,136.573 67.945,136.509 67.945,136.425L67.945,136.354Z" style="fill-rule:nonzero;"/>
                    <path id="path893" d="M68.436,136.922L68.436,135.791L68.609,135.791L68.609,135.952C68.692,135.828 68.812,135.766 68.968,135.766C69.037,135.766 69.099,135.778 69.156,135.803C69.213,135.827 69.256,135.859 69.285,135.899C69.313,135.939 69.333,135.986 69.344,136.04C69.351,136.076 69.355,136.138 69.355,136.227L69.355,136.922L69.163,136.922L69.163,136.234C69.163,136.156 69.156,136.098 69.141,136.06C69.126,136.021 69.099,135.99 69.061,135.967C69.023,135.944 68.979,135.932 68.928,135.932C68.846,135.932 68.776,135.958 68.716,136.01C68.657,136.061 68.628,136.16 68.628,136.305L68.628,136.922L68.436,136.922Z" style="fill-rule:nonzero;"/>
                    <path id="path895" d="M69.65,135.582L69.65,135.361L69.841,135.361L69.841,135.582L69.65,135.582ZM69.65,136.922L69.65,135.791L69.841,135.791L69.841,136.922L69.65,136.922Z" style="fill-rule:nonzero;"/>
                </g>
            </g>
        </g>
    </g>
</svg>
